<mxfile host="app.diagrams.net" modified="2021-08-04T14:36:28.168Z" agent="5.0 (Windows NT 10.0; Win64; x64) AppleWebKit/537.36 (KHTML, like Gecko) Chrome/92.0.4515.107 Safari/537.36" etag="Vot36CDkHynxAzcBzMD9" version="14.9.4" type="github">
  <diagram id="JKGx59PjxnNhFWGSLzR4" name="Page-1">
    <mxGraphModel dx="1422" dy="796" grid="1" gridSize="10" guides="1" tooltips="1" connect="1" arrows="1" fold="1" page="1" pageScale="1" pageWidth="827" pageHeight="1169" math="0" shadow="0">
      <root>
        <mxCell id="0" />
        <mxCell id="1" parent="0" />
        <mxCell id="f83YkQFLQjapnWohl-hb-3" style="edgeStyle=orthogonalEdgeStyle;rounded=0;orthogonalLoop=1;jettySize=auto;html=1;exitX=1;exitY=0.5;exitDx=0;exitDy=0;curved=1;" edge="1" parent="1" source="f83YkQFLQjapnWohl-hb-1" target="f83YkQFLQjapnWohl-hb-2">
          <mxGeometry relative="1" as="geometry" />
        </mxCell>
        <mxCell id="f83YkQFLQjapnWohl-hb-1" value="是啊" style="rounded=0;whiteSpace=wrap;html=1;" vertex="1" parent="1">
          <mxGeometry x="200" y="410" width="120" height="60" as="geometry" />
        </mxCell>
        <mxCell id="f83YkQFLQjapnWohl-hb-2" value="" style="rounded=0;whiteSpace=wrap;html=1;" vertex="1" parent="1">
          <mxGeometry x="560" y="555" width="120" height="60" as="geometry" />
        </mxCell>
        <mxCell id="f83YkQFLQjapnWohl-hb-5" style="edgeStyle=orthogonalEdgeStyle;rounded=0;orthogonalLoop=1;jettySize=auto;html=1;" edge="1" parent="1" source="f83YkQFLQjapnWohl-hb-4" target="f83YkQFLQjapnWohl-hb-1">
          <mxGeometry relative="1" as="geometry" />
        </mxCell>
        <mxCell id="f83YkQFLQjapnWohl-hb-7" style="edgeStyle=orthogonalEdgeStyle;rounded=0;orthogonalLoop=1;jettySize=auto;html=1;" edge="1" parent="1" source="f83YkQFLQjapnWohl-hb-4" target="f83YkQFLQjapnWohl-hb-2">
          <mxGeometry relative="1" as="geometry" />
        </mxCell>
        <mxCell id="f83YkQFLQjapnWohl-hb-4" value="111" style="shape=ext;double=1;whiteSpace=wrap;html=1;aspect=fixed;" vertex="1" parent="1">
          <mxGeometry x="320" y="280" width="80" height="80" as="geometry" />
        </mxCell>
        <mxCell id="f83YkQFLQjapnWohl-hb-9" value="" style="endArrow=classic;html=1;exitX=1;exitY=0.25;exitDx=0;exitDy=0;" edge="1" parent="1" source="f83YkQFLQjapnWohl-hb-4">
          <mxGeometry width="50" height="50" relative="1" as="geometry">
            <mxPoint x="420" y="340" as="sourcePoint" />
            <mxPoint x="530" y="250" as="targetPoint" />
          </mxGeometry>
        </mxCell>
        <mxCell id="f83YkQFLQjapnWohl-hb-10" value="asda&amp;nbsp;" style="rounded=1;whiteSpace=wrap;html=1;strokeWidth=2;fillWeight=4;hachureGap=8;hachureAngle=45;fillColor=#1ba1e2;sketch=1;" vertex="1" parent="1">
          <mxGeometry x="100" y="210" width="120" height="60" as="geometry" />
        </mxCell>
        <mxCell id="f83YkQFLQjapnWohl-hb-11" value="" style="html=1;shadow=0;dashed=0;align=center;verticalAlign=middle;shape=mxgraph.arrows2.bendDoubleArrow;dy=15;dx=38;arrowHead=55;rounded=0;" vertex="1" parent="1">
          <mxGeometry x="210" y="580" width="180" height="90" as="geometry" />
        </mxCell>
      </root>
    </mxGraphModel>
  </diagram>
</mxfile>
